<?xml version="1.0" encoding="UTF-8" standalone="no"?>
<!-- Created with Inkscape (http://www.inkscape.org/) -->

<svg
   width="12.252319mm"
   height="6.9076691mm"
   viewBox="0 0 12.252319 6.9076691"
   version="1.1"
   id="svg5"
   xmlns="http://www.w3.org/2000/svg"
   xmlns:svg="http://www.w3.org/2000/svg">
  <defs
     id="defs2" />
  <g
     id="layer1"
     transform="translate(-55.015107,-172.05218)">
    <g
       id="g1411"
       transform="translate(-45.45741,-2.44676)">
      <path
         style="fill:#37366a;fill-opacity:1;stroke-width:1.37902;stroke-opacity:0.992157;paint-order:markers stroke fill"
         d="m 103.53838,174.93202 c -1.67351,0 -3.02048,1.34749 -3.02048,3.02101 0,0.60517 0.17614,1.16765 0.48017,1.63917 0.0191,0.0295 0.0586,0.0875 0.0586,0.0875 l -0.58415,1.72691 1.61539,-0.80114 c 0,0 0.0421,0.0227 0.0635,0.0337 0.41489,0.21379 0.88632,0.33435 1.38699,0.33435 h 2.53111 v -1.06505 h -2.4815 c -0.50737,0 -0.9684,-0.19128 -1.31521,-0.50595 -0.39371,-0.35723 -0.64022,-0.87349 -0.64022,-1.44948 0,-1.08336 0.87207,-1.95544 1.95543,-1.95544 h 2.4815 v -1.06557 z"
         id="path1405" />
      <path
         style="fill:#2a0080;fill-opacity:1;stroke-width:1.37902;stroke-opacity:0.992157;paint-order:markers stroke fill"
         d="m 109.65898,180.97353 c 1.67351,0 3.02048,-1.34749 3.02048,-3.02101 0,-0.60517 -0.17614,-1.16765 -0.48017,-1.63917 -0.0191,-0.0295 -0.0586,-0.0875 -0.0586,-0.0875 l 0.58415,-1.72691 -1.61539,0.80114 c 0,0 -0.0421,-0.0227 -0.0635,-0.0337 -0.41489,-0.21379 -0.88632,-0.33435 -1.38699,-0.33435 h -2.53111 v 1.06505 h 2.4815 c 0.50737,0 0.9684,0.19128 1.31521,0.50595 0.39371,0.35723 0.64022,0.87349 0.64022,1.44948 0,1.08336 -0.87207,1.95544 -1.95543,1.95544 h -2.4815 v 1.06557 z"
         id="path1407" />
      <rect
         style="fill:#3100c2;fill-opacity:1;stroke-width:1.32292;stroke-opacity:0.992157;paint-order:markers stroke fill"
         id="rect1409"
         width="4.9940104"
         height="1.2402344"
         x="-109.0957"
         y="177.33266"
         ry="0"
         transform="scale(-1,1)" />
    </g>
  </g>
</svg>
